<svg xmlns="http://www.w3.org/2000/svg" viewBox="0 0 460 300" width="460" height="300" role="img" aria-labelledby="t d" font-family="-apple-system,BlinkMacSystemFont,'Segoe UI',Inter,Helvetica,Arial,sans-serif">
<title id="t">poxifat — formatear USB y discos sin límites</title>
<desc id="d">Mockup de la utilidad poxifat: unidad de almacenamiento a formatear, selector de sistema de archivos FAT32, exFAT o NTFS, y barra de progreso de formateo.</desc>
<style>
.m{font-family:ui-monospace,'SF Mono',SFMono-Regular,Menlo,Consolas,'Liberation Mono',monospace}
text{text-rendering:geometricPrecision}
</style>
<defs>
<linearGradient id="bgGrad" x1="0" y1="0" x2="1" y2="1">
<stop offset="0" stop-color="#ffffff"/><stop offset="1" stop-color="#e8f3fd"/>
</linearGradient>
<linearGradient id="diskGrad" x1="0" y1="0" x2="1" y2="1">
<stop offset="0" stop-color="#0284c7"/><stop offset="1" stop-color="#3a6fd8"/>
</linearGradient>
</defs>
<rect x="0" y="0" width="460" height="300" rx="14" fill="url(#bgGrad)"/>
<rect x="16" y="16" width="428" height="268" rx="10" fill="#ffffff" stroke="#d5e2f0" stroke-width="1"/>
<circle cx="33" cy="37" r="4" fill="#e6e9ee"/>
<circle cx="47" cy="37" r="4" fill="#e6e9ee"/>
<circle cx="61" cy="37" r="4" fill="#e6e9ee"/>
<text x="78" y="41" class="m" font-size="10" letter-spacing="1.2" fill="#8b949e">POXIFAT // FORMATEADOR DE DISCOS</text>
<line x1="16" y1="56" x2="444" y2="56" stroke="#f0f2f6" stroke-width="1"/>
<g>
<circle cx="96" cy="150" r="56" fill="url(#diskGrad)"/>
<circle cx="96" cy="150" r="56" fill="none" stroke="#ffffff" stroke-opacity="0.25" stroke-width="1"/>
<circle cx="96" cy="150" r="34" fill="none" stroke="#ffffff" stroke-opacity="0.35" stroke-width="1.5"/>
<text x="96" y="147" class="m" font-size="12" fill="#ffffff" text-anchor="middle">FAT32</text>
<text x="96" y="164" class="m" font-size="7.5" fill="#ffffff" fill-opacity="0.75" text-anchor="middle">1 de 2</text>
<circle cx="150" cy="150" r="14" fill="#1a7f37"/>
<path d="M144 150 l4 4 l9 -10" fill="none" stroke="#ffffff" stroke-width="2" stroke-linecap="round" stroke-linejoin="round"/>
</g>
<g>
<rect x="190" y="82" width="222" height="34" rx="8" fill="#f5f9fd" stroke="#dde9f5" stroke-width="1"/>
<text x="206" y="103" class="m" font-size="9" fill="#57606a">Sistema de archivos</text>
<text x="388" y="103" class="m" font-size="9" fill="#0284c7" text-anchor="end">FAT32 ▾</text>
<rect x="190" y="130" width="222" height="30" rx="8" fill="#f5f9fd" stroke="#dde9f5" stroke-width="1"/>
<text x="206" y="149" class="m" font-size="9" fill="#8b949e">exFAT</text>
<rect x="252" y="130" width="52" height="30" rx="8" fill="#f5f9fd" stroke="#dde9f5" stroke-width="1"/>
<text x="278" y="149" class="m" font-size="9" fill="#8b949e" text-anchor="middle">NTFS</text>
</g>
<rect x="190" y="180" width="222" height="44" rx="8" fill="#f7fafd" stroke="#e2ecf6" stroke-width="1"/>
<text x="206" y="198" class="m" font-size="8.5" fill="#57606a">Formateando…</text>
<rect x="206" y="208" width="180" height="5" rx="2.5" fill="#e5ecf4"/>
<rect x="206" y="208" width="126" height="5" rx="2.5" fill="#0284c7"/>
<text x="222" y="241" class="m" font-size="8.5" fill="#57606a">USB 2 · 29 GB · sin límite de 32 GB</text>
<rect x="336" y="228" width="76" height="26" rx="7" fill="#0284c7"/>
<text x="374" y="245" class="m" font-size="9" fill="#ffffff" text-anchor="middle">FORMATEAR</text>
</svg>